<?xml version="1.0" encoding="UTF-8"?>
<svg id="Layer_1" data-name="Layer 1" xmlns="http://www.w3.org/2000/svg" xmlns:xlink="http://www.w3.org/1999/xlink" viewBox="0 0 31 39">
  <defs>
    <style>
      .cls-1 {
        fill: none;
      }

      .cls-2 {
        clip-path: url(#clippath);
      }

      .cls-3 {
        fill: #002755;
      }
    </style>
    <clipPath id="clippath">
      <rect class="cls-1" width="31" height="39"/>
    </clipPath>
  </defs>
  <g class="cls-2">
    <g>
      <path class="cls-3" d="M15.5,14.62c-1.15,0-2.27,.34-3.23,.99-.96,.64-1.7,1.56-2.14,2.63-.44,1.07-.56,2.25-.33,3.38,.22,1.13,.78,2.18,1.59,3,.81,.82,1.85,1.38,2.98,1.6,1.13,.23,2.3,.11,3.36-.33,1.06-.44,1.97-1.19,2.61-2.15,.64-.96,.98-2.09,.98-3.25,0-1.55-.61-3.04-1.7-4.14s-2.57-1.71-4.11-1.71Zm-4.84,6.34c-.1,0-.19-.03-.27-.08-.08-.05-.14-.13-.18-.22-.04-.09-.05-.19-.03-.28s.06-.18,.13-.25c.07-.07,.15-.11,.25-.13,.09-.02,.19,0,.28,.03,.09,.04,.16,.1,.22,.18,.05,.08,.08,.17,.08,.27,0,.13-.05,.25-.14,.34-.09,.09-.21,.14-.34,.14Zm4.84,4.88c-.1,0-.19-.03-.27-.08-.08-.05-.14-.13-.18-.22-.04-.09-.05-.19-.03-.28,.02-.09,.06-.18,.13-.25,.07-.07,.15-.11,.25-.13,.09-.02,.19,0,.28,.03,.09,.04,.16,.1,.22,.18,.05,.08,.08,.17,.08,.27,0,.13-.05,.25-.14,.34-.09,.09-.21,.14-.34,.14Zm.48-5.36c0,.08-.02,.15-.05,.22-.03,.07-.08,.13-.15,.17l-2.06,1.5c-.1,.07-.23,.1-.36,.08-.13-.02-.24-.09-.31-.19-.08-.1-.11-.23-.09-.36,.02-.13,.09-.24,.19-.32l1.86-1.36v-3.13c0-.13,.05-.25,.14-.34,.09-.09,.21-.14,.34-.14s.25,.05,.34,.14c.09,.09,.14,.22,.14,.34v3.38Zm-.48-4.39c-.1,0-.19-.03-.27-.08-.08-.05-.14-.13-.18-.22-.04-.09-.05-.19-.03-.28,.02-.09,.06-.18,.13-.25,.07-.07,.15-.11,.25-.13,.09-.02,.19,0,.28,.03s.16,.1,.22,.18c.05,.08,.08,.17,.08,.27,0,.13-.05,.25-.14,.34-.09,.09-.21,.14-.34,.14Zm4.84,4.88c-.1,0-.19-.03-.27-.08-.08-.05-.14-.13-.18-.22-.04-.09-.05-.19-.03-.28s.06-.18,.13-.25c.07-.07,.15-.11,.25-.13,.09-.02,.19,0,.28,.03,.09,.04,.16,.1,.22,.18,.05,.08,.08,.17,.08,.27,0,.13-.05,.25-.14,.34-.09,.09-.21,.14-.34,.14Z"/>
      <path class="cls-3" d="M21.8,11.7H9.2c-.64,0-1.26,.26-1.71,.71-.45,.46-.71,1.08-.71,1.72v12.68c0,.65,.26,1.27,.71,1.72,.45,.46,1.07,.71,1.71,.71h12.59c.64,0,1.26-.26,1.71-.71,.45-.46,.71-1.08,.71-1.72V14.14c0-.65-.26-1.27-.71-1.72-.45-.46-1.07-.71-1.71-.71Zm-6.3,15.6c-1.34,0-2.65-.4-3.77-1.15-1.12-.75-1.98-1.82-2.5-3.06-.51-1.25-.65-2.62-.39-3.94,.26-1.32,.91-2.54,1.86-3.49,.95-.95,2.16-1.6,3.47-1.87,1.32-.26,2.68-.13,3.92,.39,1.24,.52,2.3,1.39,3.04,2.51,.75,1.12,1.14,2.44,1.14,3.79,0,1.81-.72,3.54-1.99,4.82-1.27,1.28-3,2-4.79,2Z"/>
      <path class="cls-3" d="M19.55,1.95h-1.66c-.06,0-.13,.02-.18,.06-.05,.04-.08,.1-.09,.16-.31,2.27-4.17,2.26-4.48,0,0-.06-.03-.12-.07-.16-.04-.04-.1-.07-.16-.07h-1.46c-.41,.01-.81,.19-1.09,.49-.29,.3-.44,.71-.43,1.12v7.16h11.14V3.56c.01-.42-.14-.82-.43-1.12-.29-.3-.68-.48-1.09-.49Zm-7.92,6.57c0,.13-.05,.25-.14,.34-.09,.09-.21,.14-.34,.14s-.25-.05-.34-.14c-.09-.09-.14-.21-.14-.34v-2.42c0-.13,.05-.25,.14-.34,.09-.09,.21-.14,.34-.14s.25,.05,.34,.14c.09,.09,.14,.21,.14,.34v2.42Zm0-3.84c0,.13-.05,.25-.14,.34-.09,.09-.21,.14-.34,.14s-.25-.05-.34-.14c-.09-.09-.14-.22-.14-.34v-.53c0-.13,.05-.25,.14-.34,.09-.09,.21-.14,.34-.14s.25,.05,.34,.14c.09,.09,.14,.21,.14,.34v.53Zm5.67,3.81l-1.32,1.31c-.13,.12-.29,.19-.47,.19s-.34-.07-.47-.19l-1.32-1.31c-.09-.09-.14-.21-.14-.34,0-.13,.05-.25,.14-.34,.09-.09,.21-.14,.34-.14,.13,0,.25,.05,.34,.14l.63,.62v-3.3c0-.13,.05-.25,.14-.34,.09-.09,.21-.14,.34-.14s.25,.05,.34,.14c.09,.09,.14,.22,.14,.34v3.3l.63-.62c.09-.09,.21-.14,.34-.14,.13,0,.25,.05,.34,.14,.09,.09,.14,.21,.14,.34,0,.13-.05,.25-.14,.34Z"/>
    </g>
  </g>
</svg>