<?xml version="1.0" encoding="UTF-8"?>
<svg id="Layer_1" data-name="Layer 1" xmlns="http://www.w3.org/2000/svg" viewBox="0 0 40 49">
  <defs>
    <style>
      .cls-1 {
        fill: #002755;
      }
    </style>
  </defs>
  <path class="cls-1" d="M25.8,19.67H11.73v-1.64h14.07v1.64Zm0,4.92H11.73v1.64h14.07v-1.64Zm-14.07,8.2h14.07v-1.64H11.73v1.64ZM23.45,9.84H9.38V4.1h2.42c.37-2.33,2.3-4.1,4.62-4.1s4.25,1.77,4.62,4.1h2.42v5.74Zm-5.47-4.92c0-.91-.7-1.64-1.56-1.64s-1.56,.73-1.56,1.64,.7,1.64,1.56,1.64,1.56-.73,1.56-1.64Zm7.04,38.52l3.91,4.1,8.6-9.02-3.91-4.1-8.6,9.02Zm14.53-9.36l-1.7-1.78c-.61-.64-1.6-.64-2.21,0l-1.24,1.3,3.91,4.1,1.24-1.3c.61-.64,.61-1.68,0-2.32Zm-15.91,13.96c-.09,.55,.37,1.04,.9,.94l3.61-.63-3.91-4.1-.6,3.79ZM10.16,17.21h-3.13v3.28h3.13v-3.28Zm0,6.56h-3.13v3.28h3.13v-3.28Zm-3.13,9.84h3.13v-3.28h-3.13v3.28Zm-3.13,6.56V9.84h3.91V5.74H1.56c-.86,0-1.56,.73-1.56,1.64V42.62c0,.91,.7,1.64,1.56,1.64H21.89l3.91-4.1H3.91Zm25.01-3.28l3.91-4.1V7.38c0-.91-.7-1.64-1.56-1.64h-6.25v4.1h3.91v27.05Z"/>
</svg>