<?xml version="1.0" encoding="UTF-8"?>
<svg id="Livello_2" data-name="Livello 2" xmlns="http://www.w3.org/2000/svg" viewBox="0 0 69.2 85.1">
  <defs>
    <style>
      .cls-1 {
        fill: #7cb9e8;
      }
    </style>
  </defs>
  <g id="Livello_2-2" data-name="Livello 2">
    <g id="Livello_1-2" data-name="Livello 1-2">
      <g>
        <path class="cls-1" d="m8.96,25.19c0-8.89,5.52-16.1,14.45-16.1s14.75,6.27,14.75,15.16-5.81,17.04-14.75,17.04-14.45-7.21-14.45-16.1"/>
        <path class="cls-1" d="m1.28,82.93c-2.31-2.78-.94-8.17-.2-11.1.24-.94,1.4-5.23,5.18-9.54,8.24-9.38,21.82-10.81,23.87-11,3.87-.36,6.81-.03,11.35-1.75,4.6-1.74,7.41-4.29,8.02-4.87,3.71-3.46,5.17-7.2,6.65-11,2.13-5.46,2.8-10.5,3.52-15.87.47-3.49.7-5.24.68-5.45-.07-.89-.44-3.24-.43-4.18.01-1.4.59-7.82,1-8.05,2.05-1.17,1.62,6.47,1.8,7.78.07.55,1.33-.21,3.23.19,1.45.3,1.45,2.07,1.59,2.54.64,2.25,4.28,15.68-1.91,31.99-2.82,7.43-7.41,12.64-12.23,18.11,0,0-2.85,3.24-5.77,5.94-13.47,12.48-40.63,23.17-46.37,16.26h0Z"/>
      </g>
    </g>
  </g>
</svg>