<?xml version="1.0" encoding="UTF-8"?>
<svg id="Layer_1" data-name="Layer 1" xmlns="http://www.w3.org/2000/svg" viewBox="0 0 15.99 16.03">
  <defs>
    <style>
      .cls-1 {
        fill: #002755;
      }
    </style>
  </defs>
  <path class="cls-1" d="M12.43,4.81v-.45l-.2-.89c0-.06-.07-.11-.13-.11-.72,.04-1.47,.42-2.05,.86-.04,.03-.07,.03-.11,.02l-.27-.07c-.1-.04-.19-.06-.29-.07-1.13-.21-2.24-.17-3.34,.13-.04,0-.07,0-.11-.02-.58-.44-1.23-.73-1.93-.86-.15-.03-.24,.04-.27,.19l-.18,.95,.02,.56,.1,.47s0,.07-.03,.1c-.49,.6-.76,1.27-.78,2.03,0,.31,.02,.7,.08,1.16l.04,.16c.38,1.87,1.64,2.64,3.45,2.85,.09,0,.08,.06-.04,.15-.19,.27-.33,.57-.39,.91,0,.04-.04,.07-.07,.09-.78,.34-1.67,.21-2.12-.52-.32-.51-.66-.93-1.3-1.03-.13-.02-.25,0-.36,.06-.07,.04-.1,.13-.05,.19,0,.02,.03,.04,.04,.05,.55,.36,.92,.8,1.1,1.34,.42,1.19,1.63,1.44,2.75,1.17v.04c-.02,.42-.02,.85,0,1.28,0,.18-.04,.29-.11,.36-.11,.11-.26,.14-.43,.09-.59-.19-1.22-.49-1.74-.84C1.72,13.83,.52,11.94,.08,9.49l-.04-.27C-.18,6.83,.41,4.75,1.82,2.98,3.86,.41,7.24-.62,10.42,.38c3.33,1.05,5.54,4.29,5.57,7.75,.03,2.7-1.2,5.16-3.34,6.77-.62,.47-1.31,.81-2.05,1.1-.33,.12-.63-.05-.62-.4,.02-.83,.02-1.65,0-2.47,0-.47-.17-.88-.46-1.22-.04-.04-.03-.08,.04-.08,1.46-.16,2.8-.77,3.28-2.23,.43-1.29,.45-2.88-.49-3.95-.03-.03-.04-.06-.03-.1l.12-.75h-.02Z"/>
</svg>