<?xml version="1.0" encoding="UTF-8"?>
<svg id="Layer_1" data-name="Layer 1" xmlns="http://www.w3.org/2000/svg" viewBox="0 0 15.63 16">
  <defs>
    <style>
      .cls-1 {
        fill: #002755;
      }
    </style>
  </defs>
  <path class="cls-1" d="M8.19,.03l.38,.02,.38,.04c.26,.03,.51,.08,.78,.14l.37,.09,.41,.12,.14,.04,.22,.09,.41,.17c.26,.11,.52,.26,.78,.41l.15,.09,.24,.15c.26,.18,.52,.38,.78,.59,0,0,.02,.02,.04,.04v.02l-.05,.05-.31,.31c-.65,.65-1.3,1.3-1.95,1.95,0,0-.02,0-.02,0,0,0-.02,0-.02-.02l-.04-.04-.35-.26c-.24-.16-.49-.29-.78-.42-.24-.1-.49-.18-.76-.24l-.42-.07-.37-.03h-.4l-.37,.03-.41,.07c-.26,.05-.51,.13-.75,.23-.29,.11-.56,.26-.8,.42-.58,.37-1.06,.85-1.43,1.43-.16,.25-.29,.51-.41,.8-.1,.25-.18,.5-.23,.77l-.07,.41-.03,.36c0,.13,0,.27,0,.4l.03,.4,.06,.38c.05,.27,.13,.52,.23,.77,.11,.27,.25,.54,.4,.8,.35,.57,.81,1.03,1.36,1.41,.03,.02,.05,.04,.09,.05,.24,.16,.49,.29,.78,.41,.26,.11,.51,.19,.78,.24l.41,.07,.38,.03h.4l.38-.02,.4-.05,.41-.08,.28-.08,.08-.03,.41-.16c.28-.12,.54-.27,.78-.46l.2-.17,.18-.17,.2-.22,.2-.27,.07-.11c.08-.12,.15-.25,.22-.4,.13-.27,.22-.57,.29-.88,0,0,0-.02,0-.02h-3.02c-.23,0-.44,0-.67,0h-.42s-.1,0-.14-.02c0,0,0,0,0-.02v-3.07s0,0,0,0h7.43s.03,0,.03,.02v.06l.07,.28s0,.05,0,.11l.05,.4,.03,.38v.79s-.04,.4-.04,.4l-.04,.37c-.04,.27-.08,.52-.14,.78l-.1,.38-.12,.4c-.09,.26-.19,.51-.29,.76-.12,.27-.26,.54-.41,.8l-.1,.16-.14,.2c-.19,.27-.38,.52-.6,.76l-.04,.05-.34,.35-.05,.04c-.24,.21-.48,.42-.74,.6l-.19,.12-.22,.14c-.26,.16-.53,.3-.78,.42l-.39,.17-.15,.06-.22,.08-.38,.11-.41,.1c-.26,.06-.51,.1-.77,.13l-.37,.04-.31,.02h-.61l-.25-.02-.39-.04c-.26-.03-.53-.08-.79-.13l-.35-.09-.41-.12-.23-.08-.16-.06-.38-.16c-.26-.11-.52-.26-.78-.41l-.22-.13-.15-.1-.38-.27-.04-.04-.34-.28-.11-.1-.27-.26-.12-.12-.26-.28-.1-.11c-.21-.25-.4-.5-.57-.76l-.12-.19-.11-.18c-.16-.27-.3-.54-.42-.82l-.16-.38-.09-.25-.04-.11-.12-.41-.1-.4c-.06-.26-.1-.52-.13-.77l-.04-.37v-.18l-.02-.73c0-.09,0-.17,.02-.26l.04-.38c.04-.27,.08-.54,.14-.8l.09-.36,.13-.43,.04-.13,.08-.21,.16-.38c.12-.27,.26-.54,.41-.8l.11-.19,.11-.18c.18-.27,.37-.52,.58-.77l.1-.11,.26-.27,.11-.11,.28-.27,.09-.07c.26-.22,.52-.42,.78-.6l.19-.12,.19-.11c.26-.16,.53-.29,.8-.42l.37-.16,.22-.08,.14-.05,.4-.12,.38-.1c.26-.06,.52-.11,.78-.13l.39-.04,.37-.02h.41l.02,.03Z"/>
</svg>