<?xml version="1.0" encoding="UTF-8"?>
<svg id="Layer_1" data-name="Layer 1" xmlns="http://www.w3.org/2000/svg" viewBox="0 0 48 37.67">
  <defs>
    <style>
      .cls-1 {
        fill: #002755;
      }
    </style>
  </defs>
  <path class="cls-1" d="M8.81,20.9l8.13,9.17c.23,.26,.51,.47,.83,.61,.3,.2,.65,.32,1,.37,.36,.05,.72,.01,1.07-.1,.34-.11,.65-.3,.91-.55,.26-.25,.45-.55,.57-.89l2.76-7.65-1.82,15.82h18.48l-1.95-16.88,4.61,12.78c.23,.56,.68,1,1.23,1.25,.56,.24,1.19,.27,1.77,.07,.58-.2,1.05-.61,1.33-1.15,.28-.54,.34-1.16,.16-1.73l-5.03-13.93c-.07-.19-.16-.37-.27-.53,0,0-1.74-2.93-6.06-2.93h-9.98c-1.13-.04-2.24,.19-3.26,.68-1.01,.48-1.89,1.2-2.55,2.1-.17,.21-.31,.44-.4,.69l-2.23,6.17-5.73-6.45c-.36-.41-.86-.68-1.4-.77-.54-.09-1.1,0-1.58,.28L.75,6.67l-.75,.61,8.71,10.69c-.32,.43-.49,.95-.47,1.48,.02,.53,.22,1.04,.57,1.45Z"/>
  <path class="cls-1" d="M31.23,13.67c3.64,0,6.59-3.06,6.59-6.83C37.82,3.06,34.88,0,31.24,0c-3.64,0-6.59,3.06-6.59,6.83,0,3.77,2.95,6.83,6.59,6.84Z"/>
</svg>