<?xml version="1.0" encoding="UTF-8"?>
<svg id="Layer_1" data-name="Layer 1" xmlns="http://www.w3.org/2000/svg" viewBox="0 0 97.81 95.42">
  <defs>
    <style>
      .cls-1 {
        fill: #002755;
      }
    </style>
  </defs>
  <path class="cls-1" d="M93.37,55.14H30.25c-2.45,0-4.44,1.99-4.44,4.44v14.46c0,2.45,1.99,4.44,4.44,4.44h7.12c.76,0,1.38,.62,1.38,1.38v7.56l8.82-8.55c.26-.25,.6-.39,.96-.39h44.85c2.45,0,4.44-1.99,4.44-4.44v-14.46c0-2.45-1.99-4.44-4.44-4.44Zm-43.91,13.57c.66,.38,.88,1.22,.5,1.88-.26,.44-.72,.69-1.19,.69-.23,0-.47-.06-.69-.18l-3.29-1.9v3.81c0,.76-.62,1.38-1.38,1.38s-1.38-.62-1.38-1.38v-3.81l-3.29,1.9c-.22,.12-.45,.18-.69,.18-.47,0-.94-.25-1.19-.69-.38-.66-.15-1.5,.5-1.88l3.29-1.9-3.29-1.9c-.66-.38-.88-1.22-.5-1.88,.38-.66,1.22-.88,1.88-.5l3.29,1.9v-3.8c0-.76,.62-1.38,1.38-1.38s1.38,.62,1.38,1.38v3.8l3.29-1.9c.66-.38,1.5-.15,1.88,.5,.38,.66,.15,1.5-.5,1.88l-3.29,1.9,3.29,1.9Zm18.39,0c.66,.38,.88,1.22,.5,1.88-.26,.44-.72,.69-1.19,.69-.23,0-.47-.06-.69-.18l-3.29-1.9v3.81c0,.76-.62,1.38-1.38,1.38s-1.38-.62-1.38-1.38v-3.8l-3.29,1.9c-.22,.12-.45,.18-.69,.18-.47,0-.94-.25-1.19-.69-.38-.66-.16-1.5,.5-1.88l3.29-1.9-3.29-1.9c-.66-.38-.88-1.22-.5-1.88,.38-.66,1.22-.88,1.88-.5l3.29,1.9v-3.8c0-.76,.62-1.38,1.38-1.38s1.38,.61,1.38,1.38v3.8l3.29-1.9c.66-.38,1.5-.15,1.88,.5,.38,.66,.15,1.5-.5,1.88l-3.29,1.9,3.29,1.9Zm18.4,0c.66,.38,.88,1.22,.5,1.88-.25,.44-.72,.69-1.19,.69-.23,0-.47-.06-.69-.18l-3.29-1.9v3.81c0,.76-.61,1.38-1.38,1.38s-1.38-.62-1.38-1.38v-3.81l-3.29,1.9c-.22,.12-.45,.18-.68,.18-.47,0-.94-.25-1.19-.69-.38-.66-.15-1.5,.5-1.88l3.29-1.9-3.29-1.9c-.66-.38-.88-1.22-.5-1.88,.38-.66,1.22-.88,1.88-.5l3.29,1.9v-3.8c0-.76,.62-1.38,1.38-1.38s1.38,.62,1.38,1.38v3.8l3.29-1.9c.66-.38,1.5-.15,1.88,.5,.38,.66,.15,1.5-.5,1.88l-3.29,1.9,3.29,1.9Zm-47.92,22.94c-.26,.25-.61,.39-.96,.39-.18,0-.36-.04-.54-.11-.51-.21-.84-.71-.84-1.26v-9.43h-5.75c-3.96,0-7.19-3.23-7.19-7.19v-14.46c0-3.96,3.23-7.19,7.19-7.19h40.98c-.92-3.97-4.48-6.9-8.67-6.9h-4.02v-14.08c0-9.45-7.69-17.14-17.14-17.14s-17.15,7.69-17.15,17.14v14.08h-4.02c-4.9,0-8.9,3.99-8.9,8.9v32.13c0,4.9,3.99,8.89,8.9,8.89H62.57c4.91,0,8.9-3.99,8.9-8.89v-5.29h-22.38l-10.75,10.42Zm-6-60.24c0-5,4.07-9.07,9.08-9.07s9.07,4.07,9.07,9.07v14.08h-18.14v-14.08ZM2.75,41.4c0,.76-.62,1.38-1.38,1.38s-1.38-.62-1.38-1.38C0,18.57,18.57,0,41.4,0c19.36,0,36.16,13.5,40.39,32.26h7.88c.54,0,1.03,.31,1.25,.8,.22,.49,.15,1.06-.2,1.47l-8.51,9.94c-.26,.31-.64,.48-1.05,.48s-.78-.17-1.04-.48l-8.52-9.94c-.35-.41-.43-.98-.2-1.47,.22-.49,.71-.8,1.25-.8h6.32C74.8,15.06,59.26,2.75,41.4,2.75,20.09,2.75,2.75,20.09,2.75,41.4Z"/>
</svg>