<?xml version="1.0" encoding="UTF-8"?>
<svg id="Layer_1" data-name="Layer 1" xmlns="http://www.w3.org/2000/svg" viewBox="0 0 42.99 66.39">
  <defs>
    <style>
      .cls-1 {
        fill: #002755;
      }

      .cls-2 {
        fill: #fefefe;
      }
    </style>
  </defs>
  <path class="cls-2" d="M22.4,47.09c.26,.19,.43,.48,.5,.83,.02,.12,.05,.24,.05,.38v.17c.19,1.85,.5,3.26,1.06,4.49,.59,1.31,1.49,2.47,2.86,3.81,.5,.48,.5,1.26,.02,1.76-.5,.5-1.28,.52-1.77,.02-1.58-1.55-2.65-2.93-3.38-4.57-.59-1.28-.97-2.69-1.18-4.42l-7.73,.07c-.57,0-.9,.24-1.04,.59l-.02,.05c-.09,.24-.12,.5-.09,.76,.02,.29,.12,.55,.24,.78,.24,.45,.66,.74,1.23,.67,.73-.12,1.2-.21,1.61-.29,1.68-.29,2.53-.45,4.63-.05,.4,.07,.73,.33,.92,.74,.69,1.55,1.75,2.97,2.98,4.28,1.23,1.36,2.67,2.59,4.06,3.76,.19,.14,.35,.31,.45,.55l.5,1.26,.31,.83c.64,.67,3.43,.5,6.17-.12,1.18-.24,2.32-.59,3.28-1,.9-.38,1.65-.83,2.1-1.28,.26-.24,.38-.43,.33-.59-.05-.1-.07-.19-.09-.31-.33-2.05-.61-3.69-.87-5.14-.85-4.69-1.32-7.4-1.11-13.32,.02-.9-.26-1.66-.76-2.31-.54-.71-1.35-1.36-2.32-1.93-1.75-1.05-2.67-2.69-3.61-4.35-.71-1.26-1.44-2.57-2.58-3.38v11.44c-.02,.29-.12,.57-.31,.81-.45,.52-1.25,.59-1.77,.14-1.54-1.31-3.17-2.62-4.87-3.92-1.72-1.28-3.54-2.62-5.46-3.92-.92-.64-1.7-.71-2.29-.48-.26,.12-.5,.31-.66,.52-.19,.24-.33,.52-.4,.81-.14,.67,.05,1.43,.71,2.07,1.72,1.69,3.24,3.26,4.65,4.9,1.28,1.5,2.48,3.09,3.66,4.88Z"/>
  <path class="cls-1" d="M4.94,0H24.17c1.37,0,2.6,.57,3.5,1.45,.9,.9,1.46,2.16,1.46,3.52V26.97c2.48,1,3.61,3.02,4.75,5.02,.76,1.36,1.54,2.71,2.72,3.42,1.2,.74,2.27,1.57,3.02,2.57,.83,1.09,1.3,2.38,1.25,3.92-.19,5.66,.28,8.25,1.09,12.77,.26,1.45,.54,3.09,.85,5.07,.45,1.19,.05,2.28-.92,3.23-.69,.67-1.7,1.28-2.88,1.78-1.13,.48-2.43,.88-3.71,1.17-3.76,.81-7.77,.64-8.88-1.09-.05-.07-.09-.17-.12-.26-.09-.26-.21-.55-.33-.9l-.38-.95c-1.42-1.17-2.84-2.43-4.13-3.83-1.25-1.33-2.36-2.78-3.14-4.35-1.25-.19-1.94-.07-3.12,.14-.52,.1-1.11,.21-1.68,.29-1.77,.29-3.1-.64-3.8-1.93-.28-.55-.47-1.17-.52-1.78-.05-.62,.02-1.26,.24-1.86l.05-.1c.05-.12,.09-.24,.14-.33H4.94c-1.35,0-2.6-.57-3.5-1.47-.87-.9-1.44-2.14-1.44-3.5V4.97C0,3.61,.57,2.35,1.44,1.45c.9-.88,2.15-1.45,3.5-1.45ZM29.13,40.45l2.41,2.43c.54,.55,.54,1.43,0,1.95-.52,.55-1.39,.55-1.94,.02l-2.84-2.85c-1.44-1.24-2.98-2.47-4.58-3.69-1.72-1.28-3.54-2.62-5.46-3.92-.92-.64-1.7-.71-2.29-.48-.26,.12-.5,.31-.66,.52-.19,.24-.33,.52-.4,.81-.14,.67,.05,1.43,.71,2.07,1.72,1.69,3.24,3.26,4.65,4.9,1.28,1.5,2.48,3.09,3.66,4.88,.26,.19,.43,.48,.5,.83,.02,.12,.05,.24,.05,.38v.17c.19,1.85,.5,3.26,1.06,4.49,.59,1.31,1.49,2.47,2.86,3.81,.5,.48,.5,1.26,.02,1.76-.5,.5-1.28,.52-1.77,.02-1.58-1.55-2.65-2.93-3.38-4.57-.59-1.28-.97-2.69-1.18-4.42l-7.73,.07c-.57,0-.9,.24-1.04,.59l-.02,.05c-.09,.24-.12,.5-.09,.76,.02,.29,.12,.55,.24,.78,.24,.45,.66,.74,1.23,.67,.73-.12,1.2-.21,1.61-.29,1.68-.29,2.53-.45,4.63-.05,.4,.07,.73,.33,.92,.74,.69,1.55,1.75,2.97,2.98,4.28,1.23,1.36,2.67,2.59,4.06,3.76,.19,.14,.35,.31,.45,.55l.5,1.26,.31,.83c.64,.67,3.43,.5,6.17-.12,1.18-.24,2.32-.59,3.28-1,.9-.38,1.65-.83,2.1-1.28,.26-.24,.38-.43,.33-.59-.05-.1-.07-.19-.09-.31-.33-2.05-.61-3.69-.87-5.14-.85-4.69-1.32-7.4-1.11-13.32,.02-.9-.26-1.66-.76-2.31-.54-.71-1.35-1.36-2.32-1.93-1.75-1.05-2.67-2.69-3.61-4.35-.71-1.26-1.44-2.57-2.58-3.38v10.61Zm-12.33,3.35c-.59,.52-1.39,.83-2.24,.83-.94,0-1.82-.38-2.43-1.02-.64-.62-1.04-1.5-1.04-2.45s.35-1.76,.94-2.4c-1.09-1.24-1.37-2.73-1.09-4.07,.17-.67,.47-1.31,.87-1.83,.45-.55,.99-.98,1.65-1.26,1.3-.55,2.98-.48,4.68,.71,1.91,1.33,3.78,2.66,5.53,4,1.02,.76,2.01,1.52,2.95,2.28V4.97c0-.67-.28-1.28-.73-1.74-.43-.43-1.04-.71-1.72-.71H4.94c-.66,0-1.28,.29-1.72,.71-.43,.45-.71,1.07-.71,1.74V44c0,.67,.28,1.28,.71,1.71,.45,.45,1.06,.74,1.72,.74h13.96c-.66-.9-1.35-1.76-2.06-2.59l-.05-.05Zm-3.59-3.85c-.28,.33-.45,.74-.45,1.21,0,.5,.19,.95,.52,1.28,.33,.31,.78,.52,1.28,.52,.45,0,.83-.17,1.16-.4-.8-.86-1.63-1.71-2.5-2.62ZM7.25,23.26c.26-.4,.47-.78,.69-1.14l.64,1.12,.76-.5c-.07-.1-.17-.19-.28-.33l-.59-.67c.5-.07,.9-.17,1.25-.24l-.24-.9c-.26,.1-.52,.21-.83,.36-.21,.1-.35,.17-.4,.19,.07-.64,.12-1.07,.12-1.33h-.85c0,.36,.02,.78,.12,1.31-.33-.19-.71-.38-1.13-.57l-.31,.88c.09,.02,.28,.07,.54,.14,.4,.1,.61,.14,.71,.17-.02,.02-.09,.1-.19,.19-.26,.24-.5,.5-.73,.76l.73,.57Zm4.39,0c.26-.4,.5-.78,.69-1.14l.66,1.12,.73-.5c-.07-.1-.17-.19-.28-.33l-.57-.67c.47-.07,.87-.17,1.25-.24l-.26-.9c-.26,.1-.52,.21-.8,.36-.21,.1-.35,.17-.43,.19,.09-.64,.12-1.07,.12-1.33h-.85c0,.36,.05,.78,.12,1.31-.33-.19-.71-.38-1.13-.57l-.28,.88c.07,.02,.26,.07,.54,.14,.38,.1,.61,.14,.69,.17-.02,.02-.09,.1-.19,.19-.26,.24-.5,.5-.73,.76l.73,.57Zm4.42,0c.24-.4,.47-.78,.66-1.14l.66,1.12,.73-.5c-.05-.1-.14-.19-.26-.33l-.59-.67c.47-.07,.9-.17,1.25-.24l-.26-.9c-.24,.1-.52,.21-.8,.36-.21,.1-.35,.17-.43,.19,.09-.64,.14-1.07,.14-1.33h-.87c0,.36,.05,.78,.12,1.31-.33-.19-.71-.38-1.13-.57l-.28,.88c.09,.02,.26,.07,.54,.14,.38,.1,.61,.14,.69,.17-.02,.02-.07,.1-.19,.19-.24,.24-.5,.5-.73,.76l.76,.57Zm4.39,0c.26-.4,.47-.78,.69-1.14l.64,1.12,.76-.5c-.07-.1-.17-.19-.28-.33l-.59-.67c.47-.07,.9-.17,1.25-.24l-.26-.9c-.24,.1-.5,.21-.8,.36-.21,.1-.35,.17-.4,.19,.07-.64,.12-1.07,.12-1.33h-.85c0,.36,.02,.78,.12,1.31-.33-.19-.71-.38-1.13-.57l-.31,.88c.09,.02,.28,.07,.54,.14,.4,.1,.61,.14,.71,.17-.02,.02-.09,.1-.19,.19-.26,.24-.5,.5-.73,.76l.73,.57ZM5.01,5.49H24.12c.45,0,.83,.38,.83,.83v30.16c0,.45-.38,.83-.83,.83h-3.31c-1.3-.98-2.67-1.95-4.09-2.93-.92-.64-1.7-.71-2.29-.48-.26,.12-.5,.31-.66,.52-.19,.24-.33,.52-.4,.81-.14,.67,.05,1.43,.71,2.07H5.01c-.45,0-.83-.38-.83-.83V6.33c0-.45,.38-.83,.83-.83Z"/>
</svg>