<?xml version="1.0" encoding="UTF-8"?>
<svg id="Layer_2" data-name="Layer 2" xmlns="http://www.w3.org/2000/svg" viewBox="0 0 43.69 34.5">
  <defs>
    <style>
      .cls-1 {
        fill: #002755;
      }
    </style>
  </defs>
  <g id="Layer_1-2" data-name="Layer 1">
    <path class="cls-1" d="M34.34,27.25c3.18,0,5.75-2.6,5.75-5.8s-2.57-5.8-5.75-5.8-5.75,2.6-5.75,5.8,2.57,5.8,5.75,5.8Z"/>
    <path class="cls-1" d="M40.77,25.43c-.17-.11-.39-.06-.5,.11-1.29,1.91-3.46,3.16-5.93,3.16s-4.64-1.25-5.93-3.16c-.11-.17-.33-.22-.5-.11-1.77,1.2-2.92,3.24-2.92,5.5,0,1.17,.78,2.21,1.89,2.53,2.42,.69,4.93,1.04,7.45,1.04s5.03-.36,7.46-1.04c1.11-.32,1.88-1.36,1.88-2.53,0-2.25-1.15-4.29-2.92-5.5Z"/>
    <path class="cls-1" d="M9.34,24.26c3.18,0,5.75-2.6,5.75-5.8s-2.57-5.8-5.75-5.8-5.75,2.6-5.75,5.8,2.57,5.8,5.75,5.8Z"/>
    <path class="cls-1" d="M15.77,22.44c-.17-.11-.39-.06-.5,.11-1.29,1.91-3.46,3.16-5.93,3.16s-4.64-1.25-5.93-3.16c-.11-.17-.33-.22-.5-.11-1.77,1.2-2.92,3.24-2.92,5.5,0,1.17,.78,2.21,1.89,2.53,2.42,.69,4.93,1.04,7.45,1.04s5.03-.36,7.46-1.04c1.11-.32,1.88-1.36,1.88-2.53,0-2.25-1.15-4.29-2.92-5.5Z"/>
    <path class="cls-1" d="M23.34,10.75c2.94,0,5.33-2.41,5.33-5.38S26.29,0,23.34,0s-5.33,2.41-5.33,5.38,2.39,5.38,5.33,5.38Z"/>
    <path class="cls-1" d="M29.3,9.06c-.15-.1-.36-.05-.46,.1-1.2,1.77-3.21,2.93-5.5,2.93s-4.3-1.16-5.5-2.93c-.11-.15-.31-.2-.46-.1-1.64,1.12-2.7,3-2.7,5.09,0,1.09,.72,2.05,1.75,2.34,2.24,.64,4.57,.97,6.91,.97s4.66-.33,6.91-.97c1.03-.3,1.75-1.26,1.75-2.34,0-2.09-1.07-3.98-2.7-5.09Z"/>
  </g>
</svg>