<?xml version="1.0" encoding="UTF-8"?>
<svg id="Layer_1" data-name="Layer 1" xmlns="http://www.w3.org/2000/svg" xmlns:xlink="http://www.w3.org/1999/xlink" viewBox="0 0 52 68">
  <defs>
    <style>
      .cls-1 {
        fill: none;
      }

      .cls-2 {
        clip-path: url(#clippath);
      }

      .cls-3 {
        fill: #002755;
      }
    </style>
    <clipPath id="clippath">
      <rect class="cls-1" width="52" height="68"/>
    </clipPath>
  </defs>
  <g class="cls-2">
    <g>
      <path class="cls-3" d="M26,32.3c7.18,0,13-6.09,13-13.6s-5.82-13.6-13-13.6-13,6.09-13,13.6,5.82,13.6,13,13.6Z"/>
      <path class="cls-3" d="M40.53,28.03c-.37-.25-.88-.14-1.12,.26-2.92,4.47-7.83,7.41-13.41,7.41s-10.48-2.94-13.41-7.41c-.26-.39-.75-.51-1.12-.26-4,2.82-6.6,7.6-6.6,12.89,0,2.75,1.76,5.19,4.27,5.93,5.48,1.62,11.15,2.45,16.85,2.45s11.38-.83,16.87-2.45c2.5-.75,4.26-3.2,4.26-5.93,0-5.29-2.6-10.06-6.6-12.89Z"/>
    </g>
  </g>
</svg>